<svg xmlns="http://www.w3.org/2000/svg" xmlns:xlink="http://www.w3.org/1999/xlink" width="100" zoomAndPan="magnify" viewBox="0 0 75 74.999997" height="100" preserveAspectRatio="xMidYMid meet" version="1.0"><defs><filter x="0%" y="0%" width="100%" height="100%" id="e5cdc1e1c0"><feColorMatrix values="0 0 0 0 1 0 0 0 0 1 0 0 0 0 1 0 0 0 1 0" color-interpolation-filters="sRGB"/></filter><mask id="a1291b94a1"><g filter="url(#e5cdc1e1c0)"><rect x="-7.5" width="90" fill="#000000" y="-7.5" height="89.999996" fill-opacity="0.5"/></g></mask><clipPath id="2c88a29768"><path d="M 1.089844 0.203125 L 33.523438 0.203125 L 33.523438 16.613281 L 1.089844 16.613281 Z M 1.089844 0.203125 " clip-rule="nonzero"/></clipPath><clipPath id="6367574fc0"><path d="M 17.289062 0.203125 C 8.34375 0.203125 1.089844 3.875 1.089844 8.40625 C 1.089844 12.9375 8.34375 16.613281 17.289062 16.613281 C 26.234375 16.613281 33.484375 12.9375 33.484375 8.40625 C 33.484375 3.875 26.234375 0.203125 17.289062 0.203125 Z M 17.289062 0.203125 " clip-rule="nonzero"/></clipPath><clipPath id="dbad6d5647"><rect x="0" width="34" y="0" height="17"/></clipPath><clipPath id="774d4de7fb"><path d="M 34.136719 27.515625 L 40.4375 27.515625 L 40.4375 33.816406 L 34.136719 33.816406 Z M 34.136719 27.515625 " clip-rule="nonzero"/></clipPath><clipPath id="5402ef2a60"><path d="M 37.289062 27.515625 C 35.546875 27.515625 34.136719 28.925781 34.136719 30.664062 C 34.136719 32.40625 35.546875 33.816406 37.289062 33.816406 C 39.027344 33.816406 40.4375 32.40625 40.4375 30.664062 C 40.4375 28.925781 39.027344 27.515625 37.289062 27.515625 Z M 37.289062 27.515625 " clip-rule="nonzero"/></clipPath><clipPath id="b6212a3e50"><path d="M 35.199219 24.851562 L 39.378906 24.851562 L 39.378906 29.03125 L 35.199219 29.03125 Z M 35.199219 24.851562 " clip-rule="nonzero"/></clipPath><clipPath id="9522194fdd"><path d="M 37.289062 24.851562 C 36.132812 24.851562 35.199219 25.789062 35.199219 26.941406 C 35.199219 28.097656 36.132812 29.03125 37.289062 29.03125 C 38.441406 29.03125 39.378906 28.097656 39.378906 26.941406 C 39.378906 25.789062 38.441406 24.851562 37.289062 24.851562 Z M 37.289062 24.851562 " clip-rule="nonzero"/></clipPath><mask id="98c908bc32"><g filter="url(#e5cdc1e1c0)"><rect x="-7.5" width="90" fill="#000000" y="-7.5" height="89.999996" fill-opacity="0.5"/></g></mask><clipPath id="4d1904cb03"><path d="M 0.335938 0.203125 L 32.765625 0.203125 L 32.765625 16.613281 L 0.335938 16.613281 Z M 0.335938 0.203125 " clip-rule="nonzero"/></clipPath><clipPath id="2820d0f157"><path d="M 16.53125 0.203125 C 7.585938 0.203125 0.335938 3.875 0.335938 8.40625 C 0.335938 12.9375 7.585938 16.613281 16.53125 16.613281 C 25.476562 16.613281 32.730469 12.9375 32.730469 8.40625 C 32.730469 3.875 25.476562 0.203125 16.53125 0.203125 Z M 16.53125 0.203125 " clip-rule="nonzero"/></clipPath><clipPath id="221ac732cd"><rect x="0" width="33" y="0" height="17"/></clipPath><clipPath id="115ae0df8b"><path d="M 20.339844 39.613281 L 54.757812 39.613281 L 54.757812 51.796875 L 20.339844 51.796875 Z M 20.339844 39.613281 " clip-rule="nonzero"/></clipPath><clipPath id="adfca4e1d3"><path d="M 37.53125 39.613281 C 28.039062 39.613281 20.339844 42.339844 20.339844 45.703125 C 20.339844 49.070312 28.039062 51.796875 37.53125 51.796875 C 47.027344 51.796875 54.722656 49.070312 54.722656 45.703125 C 54.722656 42.339844 47.027344 39.613281 37.53125 39.613281 Z M 37.53125 39.613281 " clip-rule="nonzero"/></clipPath><clipPath id="0fe4cd25e3"><path d="M 7.5 31.40625 L 67.621094 31.40625 L 67.621094 47.816406 L 7.5 47.816406 Z M 7.5 31.40625 " clip-rule="nonzero"/></clipPath><clipPath id="b284b6c359"><path d="M 37.53125 31.40625 C 20.945312 31.40625 7.5 35.082031 7.5 39.613281 C 7.5 44.140625 20.945312 47.816406 37.53125 47.816406 C 54.117188 47.816406 67.5625 44.140625 67.5625 39.613281 C 67.5625 35.082031 54.117188 31.40625 37.53125 31.40625 Z M 37.53125 31.40625 " clip-rule="nonzero"/></clipPath><clipPath id="0d1da75394"><path d="M 10.945312 36.910156 L 64.117188 36.910156 L 64.117188 42.3125 L 10.945312 42.3125 Z M 10.945312 36.910156 " clip-rule="nonzero"/></clipPath><clipPath id="c02e79e785"><path d="M 13.644531 36.910156 L 61.40625 36.910156 C 62.121094 36.910156 62.808594 37.195312 63.3125 37.703125 C 63.820312 38.207031 64.105469 38.894531 64.105469 39.613281 C 64.105469 40.328125 63.820312 41.015625 63.3125 41.519531 C 62.808594 42.027344 62.121094 42.3125 61.40625 42.3125 L 13.644531 42.3125 C 12.929688 42.3125 12.242188 42.027344 11.738281 41.519531 C 11.230469 41.015625 10.945312 40.328125 10.945312 39.613281 C 10.945312 38.894531 11.230469 38.207031 11.738281 37.703125 C 12.242188 37.195312 12.929688 36.910156 13.644531 36.910156 Z M 13.644531 36.910156 " clip-rule="nonzero"/></clipPath><clipPath id="585f96ef77"><path d="M 34.136719 36.214844 L 40.925781 36.214844 L 40.925781 43.007812 L 34.136719 43.007812 Z M 34.136719 36.214844 " clip-rule="nonzero"/></clipPath><clipPath id="05ae71eae6"><path d="M 37.53125 36.214844 C 35.65625 36.214844 34.136719 37.738281 34.136719 39.613281 C 34.136719 41.488281 35.65625 43.007812 37.53125 43.007812 C 39.40625 43.007812 40.925781 41.488281 40.925781 39.613281 C 40.925781 37.738281 39.40625 36.214844 37.53125 36.214844 Z M 37.53125 36.214844 " clip-rule="nonzero"/></clipPath><clipPath id="b4c65ba248"><path d="M 60.710938 36.214844 L 67.5 36.214844 L 67.5 43.007812 L 60.710938 43.007812 Z M 60.710938 36.214844 " clip-rule="nonzero"/></clipPath><clipPath id="df783a0de1"><path d="M 64.105469 36.214844 C 62.230469 36.214844 60.710938 37.738281 60.710938 39.613281 C 60.710938 41.488281 62.230469 43.007812 64.105469 43.007812 C 65.980469 43.007812 67.5 41.488281 67.5 39.613281 C 67.5 37.738281 65.980469 36.214844 64.105469 36.214844 Z M 64.105469 36.214844 " clip-rule="nonzero"/></clipPath><clipPath id="2742e78e67"><path d="M 47.933594 36.214844 L 54.722656 36.214844 L 54.722656 43.007812 L 47.933594 43.007812 Z M 47.933594 36.214844 " clip-rule="nonzero"/></clipPath><clipPath id="08ab5f006d"><path d="M 51.328125 36.214844 C 49.453125 36.214844 47.933594 37.738281 47.933594 39.613281 C 47.933594 41.488281 49.453125 43.007812 51.328125 43.007812 C 53.203125 43.007812 54.722656 41.488281 54.722656 39.613281 C 54.722656 37.738281 53.203125 36.214844 51.328125 36.214844 Z M 51.328125 36.214844 " clip-rule="nonzero"/></clipPath><clipPath id="2eb1bc7e8e"><path d="M 7.550781 36.214844 L 14.339844 36.214844 L 14.339844 43.007812 L 7.550781 43.007812 Z M 7.550781 36.214844 " clip-rule="nonzero"/></clipPath><clipPath id="735ffda37d"><path d="M 10.945312 36.214844 C 9.070312 36.214844 7.550781 37.738281 7.550781 39.613281 C 7.550781 41.488281 9.070312 43.007812 10.945312 43.007812 C 12.820312 43.007812 14.339844 41.488281 14.339844 39.613281 C 14.339844 37.738281 12.820312 36.214844 10.945312 36.214844 Z M 10.945312 36.214844 " clip-rule="nonzero"/></clipPath><clipPath id="29e513516f"><path d="M 20.597656 36.214844 L 27.386719 36.214844 L 27.386719 43.007812 L 20.597656 43.007812 Z M 20.597656 36.214844 " clip-rule="nonzero"/></clipPath><clipPath id="293feebd33"><path d="M 23.992188 36.214844 C 22.117188 36.214844 20.597656 37.738281 20.597656 39.613281 C 20.597656 41.488281 22.117188 43.007812 23.992188 43.007812 C 25.867188 43.007812 27.386719 41.488281 27.386719 39.613281 C 27.386719 37.738281 25.867188 36.214844 23.992188 36.214844 Z M 23.992188 36.214844 " clip-rule="nonzero"/></clipPath></defs><g mask="url(#a1291b94a1)"><g transform="matrix(1, 0, 0, 1, 20, 23)"><g clip-path="url(#dbad6d5647)"><g clip-path="url(#2c88a29768)"><g clip-path="url(#6367574fc0)"><path fill="#7ecae6" d="M 1.089844 0.203125 L 33.457031 0.203125 L 33.457031 16.613281 L 1.089844 16.613281 Z M 1.089844 0.203125 " fill-opacity="1" fill-rule="nonzero"/></g></g></g></g></g><g clip-path="url(#774d4de7fb)"><g clip-path="url(#5402ef2a60)"><path fill="#ffde59" d="M 34.136719 27.515625 L 40.4375 27.515625 L 40.4375 33.816406 L 34.136719 33.816406 Z M 34.136719 27.515625 " fill-opacity="1" fill-rule="nonzero"/></g></g><g clip-path="url(#b6212a3e50)"><g clip-path="url(#9522194fdd)"><path fill="#ffde59" d="M 35.199219 24.851562 L 39.378906 24.851562 L 39.378906 29.03125 L 35.199219 29.03125 Z M 35.199219 24.851562 " fill-opacity="1" fill-rule="nonzero"/></g></g><g mask="url(#98c908bc32)"><g transform="matrix(1, 0, 0, 1, 21, 23)"><g clip-path="url(#221ac732cd)"><g clip-path="url(#4d1904cb03)"><g clip-path="url(#2820d0f157)"><path fill="#7ecae6" d="M 0.335938 0.203125 L 32.703125 0.203125 L 32.703125 16.613281 L 0.335938 16.613281 Z M 0.335938 0.203125 " fill-opacity="1" fill-rule="nonzero"/></g></g></g></g></g><g clip-path="url(#115ae0df8b)"><g clip-path="url(#adfca4e1d3)"><path fill="#5271ff" d="M 20.339844 39.613281 L 54.707031 39.613281 L 54.707031 51.796875 L 20.339844 51.796875 Z M 20.339844 39.613281 " fill-opacity="1" fill-rule="nonzero"/></g></g><g clip-path="url(#0fe4cd25e3)"><g clip-path="url(#b284b6c359)"><path fill="#38b6ff" d="M 7.5 31.40625 L 67.558594 31.40625 L 67.558594 47.816406 L 7.5 47.816406 Z M 7.5 31.40625 " fill-opacity="1" fill-rule="nonzero"/></g></g><g clip-path="url(#0d1da75394)"><g clip-path="url(#c02e79e785)"><path fill="#ffde59" d="M 10.945312 36.910156 L 64.097656 36.910156 L 64.097656 42.3125 L 10.945312 42.3125 Z M 10.945312 36.910156 " fill-opacity="1" fill-rule="nonzero"/></g></g><g clip-path="url(#585f96ef77)"><g clip-path="url(#05ae71eae6)"><path fill="#8c52ff" d="M 34.136719 36.214844 L 40.925781 36.214844 L 40.925781 43.007812 L 34.136719 43.007812 Z M 34.136719 36.214844 " fill-opacity="1" fill-rule="nonzero"/></g></g><g clip-path="url(#b4c65ba248)"><g clip-path="url(#df783a0de1)"><path fill="#8c52ff" d="M 60.710938 36.214844 L 67.5 36.214844 L 67.5 43.007812 L 60.710938 43.007812 Z M 60.710938 36.214844 " fill-opacity="1" fill-rule="nonzero"/></g></g><g clip-path="url(#2742e78e67)"><g clip-path="url(#08ab5f006d)"><path fill="#8c52ff" d="M 47.933594 36.214844 L 54.722656 36.214844 L 54.722656 43.007812 L 47.933594 43.007812 Z M 47.933594 36.214844 " fill-opacity="1" fill-rule="nonzero"/></g></g><g clip-path="url(#2eb1bc7e8e)"><g clip-path="url(#735ffda37d)"><path fill="#8c52ff" d="M 7.550781 36.214844 L 14.339844 36.214844 L 14.339844 43.007812 L 7.550781 43.007812 Z M 7.550781 36.214844 " fill-opacity="1" fill-rule="nonzero"/></g></g><g clip-path="url(#29e513516f)"><g clip-path="url(#293feebd33)"><path fill="#8c52ff" d="M 20.597656 36.214844 L 27.386719 36.214844 L 27.386719 43.007812 L 20.597656 43.007812 Z M 20.597656 36.214844 " fill-opacity="1" fill-rule="nonzero"/></g></g></svg>